# Blender 5.1.0
# www.blender.org
mtllib base.mtl
o Основание
v 1.800000 -0.463146 -1.527841
v 1.800000 -1.000000 -1.527841
v 1.800000 -0.463146 2.313222
v 1.800000 -1.000000 2.313222
v -1.800000 -0.463146 -1.527841
v -1.800000 -1.000000 -1.527841
v -1.800000 -0.463146 2.313222
v -1.800000 -1.000000 2.313222
v 0.842890 -0.463146 -1.527841
v -0.719636 -0.463146 -1.527841
v -0.719636 -0.463146 2.313222
v 0.842890 -0.463146 2.313222
v 0.842890 -0.662049 2.313222
v -0.719636 -0.662049 2.313222
v -0.719636 -0.662049 -1.527841
v 0.842890 -0.662049 -1.527841
vn -0.0000 1.0000 -0.0000
vn -0.0000 -0.0000 1.0000
vn -1.0000 -0.0000 -0.0000
vn -0.0000 -1.0000 -0.0000
vn 1.0000 -0.0000 -0.0000
vn -0.0000 -0.0000 -1.0000
vt 0.875000 0.750000
vt 0.799975 0.500000
vt 0.875000 0.500000
vt 0.625000 0.750000
vt 0.691466 0.500000
vt 0.691466 0.750000
vt 0.375000 1.000000
vt 0.375000 0.750000
vt 0.532376 0.924975
vt 0.625000 0.000000
vt 0.375000 0.250000
vt 0.375000 0.000000
vt 0.375000 0.500000
vt 0.125000 0.750000
vt 0.125000 0.500000
vt 0.625000 0.500000
vt 0.532376 0.433534
vt 0.375000 0.025373
vt 0.424738 0.231688
vt 0.424738 0.025373
vt 0.125000 0.724627
vt 0.375000 0.518312
vt 0.125000 0.518312
vt 0.424738 0.518312
vt 0.375000 0.724627
vt 0.424738 0.724627
vt 0.799975 0.750000
vt 0.625000 0.924975
vt 0.625000 1.000000
vt 0.625000 0.816466
vt 0.532376 0.816466
vt 0.625000 0.250000
vt 0.625000 0.433534
vt 0.625000 0.325025
vt 0.532376 0.325025
vt 0.375000 0.231688
s 0
usemtl Material.001
f 7/1/1 10/2/1 5/3/1
f 3/4/1 9/5/1 12/6/1
f 8/7/2 4/8/2 14/9/2
f 7/10/3 6/11/3 8/12/3
f 2/13/4 8/14/4 6/15/4
f 1/16/5 4/8/5 2/13/5
f 2/13/6 6/11/6 16/17/6
f 14/18/5 10/19/5 11/20/5
f 14/21/1 16/22/1 15/23/1
f 9/24/3 13/25/3 12/26/3
f 7/1/1 11/27/1 10/2/1
f 3/4/1 1/16/1 9/5/1
f 14/9/2 11/28/2 7/29/2
f 4/8/2 3/4/2 12/30/2
f 4/8/2 12/30/2 13/31/2
f 14/9/2 7/29/2 8/7/2
f 4/8/2 13/31/2 14/9/2
f 7/10/3 5/32/3 6/11/3
f 2/13/4 4/8/4 8/14/4
f 1/16/5 3/4/5 4/8/5
f 16/17/6 9/33/6 1/16/6
f 6/11/6 5/32/6 10/34/6
f 6/11/6 10/34/6 15/35/6
f 16/17/6 1/16/6 2/13/6
f 6/11/6 15/35/6 16/17/6
f 14/18/5 15/36/5 10/19/5
f 14/21/1 13/25/1 16/22/1
f 9/24/3 16/22/3 13/25/3
