# Blender 5.1.0
# www.blender.org
mtllib lover.mtl
o Нижняя_платформа
v 0.842890 -0.036453 -0.426981
v 0.074921 1.036152 -0.232674
v 0.619585 0.675050 -0.266450
v 0.842890 -0.662049 -0.426981
v 0.842890 -0.036453 1.418657
v 0.183196 1.036152 -0.222106
v 0.619585 0.675050 1.312322
v 0.287310 1.036152 -0.190808
v -0.505823 0.675050 -0.266450
v 0.842890 -0.662049 1.418657
v 0.383262 1.036152 -0.139982
v -0.719636 -0.036453 -0.426981
v -0.505823 0.675050 1.312322
v 0.467365 1.036152 -0.071583
v -0.719636 -0.662049 -0.426981
v -0.719636 -0.036453 1.418657
v 0.536386 1.036152 0.011762
v 0.753711 0.600536 -0.241959
v 0.575502 0.600536 -0.340964
v -0.719636 -0.662049 1.418657
v 0.587674 1.036152 0.106850
v 0.619637 0.675021 -0.266479
v 0.619257 1.036152 0.210026
v -0.458003 0.600536 -0.340964
v 0.629921 1.036152 0.317326
v -0.639949 0.600536 -0.239883
v -0.505875 0.675021 -0.266479
v -0.639949 -0.036453 1.287866
v 0.619257 1.036152 0.424625
v -0.639949 -0.036453 -0.239883
v 0.587674 1.036152 0.527801
v -0.639949 0.600536 1.287866
v 0.575502 -0.036453 -0.340964
v 0.536386 1.036152 0.622889
v -0.461801 0.600536 1.386837
v -0.505875 0.675021 1.312351
v -0.458003 -0.036453 -0.340964
v 0.467365 1.036152 0.706234
v -0.461801 -0.036453 1.386837
v 0.383262 1.036152 0.774634
v 0.753711 -0.036453 -0.241959
v 0.576479 0.600536 1.386837
v 0.753711 -0.036453 1.288375
v 0.287310 1.036152 0.825459
v 0.753711 0.600536 1.288375
v 0.619637 0.675021 1.312351
v 0.183196 1.036152 0.856757
v 0.576479 -0.036453 1.386837
v -0.465541 -0.036453 1.384759
v 0.074921 1.036152 0.867325
v -0.618837 -0.036453 1.299594
v 0.740546 -0.036453 1.295689
v -0.033354 1.036152 0.856757
v -0.137468 1.036152 0.825459
v -0.233421 1.036152 0.774634
v -0.317523 1.036152 0.706234
v -0.386545 1.036152 0.622889
v -0.437832 1.036152 0.527801
v -0.469415 1.036152 0.424625
v -0.480079 1.036152 0.317326
v -0.469415 1.036152 0.210026
v -0.437832 1.036152 0.106850
v -0.386545 1.036152 0.011762
v -0.317523 1.036152 -0.071583
v -0.233421 1.036152 -0.139982
v -0.137468 1.036152 -0.190808
v -0.033354 1.036152 -0.222106
v -0.505231 0.675050 0.317326
v -0.462985 0.675050 0.527801
v -0.494567 0.675050 0.424625
v -0.494567 0.675050 0.210026
v -0.342676 0.675050 0.706234
v -0.411697 0.675050 0.622889
v -0.462985 0.675050 0.106850
v -0.411697 0.675050 0.011762
v -0.342676 0.675050 -0.071583
v -0.058507 0.675050 -0.222106
v -0.162621 0.675050 0.825459
v -0.162621 0.675050 -0.190808
v 0.158044 0.675050 -0.222106
v 0.358110 0.675050 -0.139982
v 0.442213 0.675050 -0.071583
v 0.262158 0.675050 -0.190808
v 0.049769 0.675050 -0.232674
v -0.258573 0.675050 0.774634
v -0.258573 0.675050 -0.139982
v -0.058507 0.675050 0.856757
v 0.049769 0.675050 0.867325
v 0.262158 0.675050 0.825459
v 0.442213 0.675050 0.706234
v 0.358110 0.675050 0.774634
v 0.158044 0.675050 0.856757
v 0.511234 0.675050 0.011762
v 0.604769 0.675050 0.317326
v 0.594104 0.675050 0.424625
v 0.594104 0.675050 0.210026
v 0.511234 0.675050 0.622889
v 0.562522 0.675050 0.527801
v 0.562522 0.675050 0.106850
vn -0.0000 1.0000 -0.0000
vn -0.0000 -0.0000 1.0000
vn -1.0000 -0.0000 -0.0000
vn -0.0000 -1.0000 -0.0000
vn 1.0000 -0.0000 -0.0000
vn -0.0000 -0.0000 -1.0000
vn 0.4189 0.5058 -0.7541
vn 0.4856 -0.0000 -0.8742
vn -0.4234 0.4900 -0.7620
vn -0.4856 -0.0000 -0.8742
vn -0.0000 0.7071 -0.7071
vn -0.4189 0.5061 0.7539
vn -0.4856 -0.0000 0.8742
vn -0.4856 0.8742 -0.0000
vn 0.4178 0.5099 0.7520
vn 0.4856 -0.0000 0.8742
vn -0.0000 0.7071 0.7071
vn 0.4856 0.8742 -0.0000
vn 0.0971 -0.0068 -0.9952
vn 0.2878 -0.0200 -0.9575
vn 0.4678 -0.0326 -0.8832
vn 0.6304 -0.0439 -0.7751
vn 0.7691 -0.0536 -0.6369
vn 0.8785 -0.0612 -0.4738
vn 0.9541 -0.0665 -0.2921
vn 0.9927 -0.0691 -0.0987
vn 0.9927 -0.0691 0.0987
vn 0.9541 -0.0665 0.2921
vn 0.8785 -0.0612 0.4738
vn 0.7691 -0.0536 0.6369
vn 0.6304 -0.0439 0.7751
vn 0.4678 -0.0326 0.8832
vn 0.2878 -0.0200 0.9575
vn 0.0971 -0.0068 0.9952
vn -0.0971 0.0068 0.9952
vn -0.2878 0.0200 0.9575
vn -0.4678 0.0326 0.8832
vn -0.6304 0.0439 0.7751
vn -0.7691 0.0536 0.6369
vn -0.8785 0.0612 0.4738
vn -0.9541 0.0665 0.2921
vn -0.9927 0.0691 0.0987
vn -0.9927 0.0691 -0.0987
vn -0.9541 0.0665 -0.2921
vn -0.8785 0.0612 -0.4738
vn -0.7691 0.0536 -0.6369
vn -0.6304 0.0439 -0.7751
vn -0.4678 0.0326 -0.8832
vn -0.2878 0.0200 -0.9575
vn -0.0971 0.0068 -0.9952
vn -0.0000 0.7074 -0.7068
vn -0.0000 0.7078 -0.7064
vn -0.4833 0.8755 -0.0000
vn -0.4852 0.8744 -0.0000
vn -0.0000 0.7040 0.7102
vn -0.0000 0.7076 0.7066
vn 0.4833 0.8755 -0.0000
vn 0.4849 0.8746 -0.0000
vn 0.6303 -0.0439 -0.7751
vn 0.6303 -0.0439 0.7751
vt 0.875000 0.750000
vt 0.625000 0.750000
vt 0.833747 0.745690
vt 0.625000 0.500000
vt 0.875000 0.500000
vt 0.667781 0.511651
vt 0.375000 1.000000
vt 0.375000 0.750000
vt 0.625000 0.000000
vt 0.375000 0.250000
vt 0.375000 0.000000
vt 0.375000 0.500000
vt 0.125000 0.750000
vt 0.125000 0.500000
vt 0.625000 0.250000
vt 0.649060 0.510782
vt 0.850940 0.510782
vt 0.751276 0.515669
vt 0.850940 0.739218
vt 0.751276 0.674831
vt 0.770699 0.673302
vt 0.611372 0.511938
vt 0.623444 0.484016
vt 0.649044 0.510778
vt 0.383591 0.479084
vt 0.850732 0.501241
vt 0.875000 0.514626
vt 0.850949 0.510778
vt 0.603997 0.285031
vt 0.391756 0.235374
vt 0.600573 0.235374
vt 0.390534 0.284293
vt 0.875000 0.735680
vt 0.852524 0.747613
vt 0.850949 0.739223
vt 0.600573 0.000000
vt 0.391756 0.014320
vt 0.391756 0.012623
vt 0.600573 0.014320
vt 0.624214 0.765722
vt 0.611559 0.738019
vt 0.649044 0.739223
vt 0.391993 0.738485
vt 0.383702 0.770789
vt 0.391814 0.968043
vt 0.392572 0.735922
vt 0.392558 0.514148
vt 0.649060 0.739218
vt 0.000000 0.000000
vt 0.834345 0.745408
vt 0.858872 0.733872
vt 0.641375 0.733343
vt 0.667625 0.745690
vt 0.639268 0.732353
vt 0.862250 0.732284
vt 0.862250 0.525343
vt 0.639268 0.525062
vt 0.833139 0.511651
vt 0.625000 1.000000
vt 0.713177 0.521727
vt 0.695965 0.529081
vt 0.806587 0.529081
vt 0.789375 0.521726
vt 0.770699 0.517198
vt 0.731853 0.517198
vt 0.680878 0.538978
vt 0.668497 0.551037
vt 0.821674 0.538978
vt 0.834055 0.551037
vt 0.659296 0.564795
vt 0.653631 0.579724
vt 0.843256 0.564795
vt 0.848921 0.579724
vt 0.651718 0.595250
vt 0.850834 0.595250
vt 0.653631 0.610775
vt 0.659296 0.625704
vt 0.848921 0.610775
vt 0.843255 0.625704
vt 0.668496 0.639462
vt 0.680878 0.651522
vt 0.834055 0.639462
vt 0.821674 0.651522
vt 0.695964 0.661419
vt 0.713177 0.668773
vt 0.806587 0.661419
vt 0.789375 0.668773
vt 0.731853 0.673301
vt 0.391756 0.000301
vt 0.391756 0.000000
vt 0.601353 0.968043
s 0
usemtl Material.002
f 16/1/1 5/2/1 39/3/1
f 1/4/1 12/5/1 33/6/1
f 5/2/2 20/7/2 10/8/2
f 16/9/3 15/10/3 20/11/3
f 4/12/4 20/13/4 15/14/4
f 1/4/5 10/8/5 4/12/5
f 12/15/6 4/12/6 15/10/6
f 2/49/19 80/49/19 84/49/19
f 6/49/20 83/49/20 80/49/20
f 8/49/21 81/49/21 83/49/21
f 11/49/22 82/49/22 81/49/22
f 14/49/23 93/49/23 82/49/23
f 17/49/24 99/49/24 93/49/24
f 21/49/25 96/49/25 99/49/25
f 23/49/26 94/49/26 96/49/26
f 94/49/27 29/49/27 95/49/27
f 95/49/28 31/49/28 98/49/28
f 98/49/29 34/49/29 97/49/29
f 97/49/30 38/49/30 90/49/30
f 90/49/31 40/49/31 91/49/31
f 91/49/32 44/49/32 89/49/32
f 89/49/33 47/49/33 92/49/33
f 92/49/34 50/49/34 88/49/34
f 88/49/35 53/49/35 87/49/35
f 87/49/36 54/49/36 78/49/36
f 78/49/37 55/49/37 85/49/37
f 85/49/38 56/49/38 72/49/38
f 72/49/39 57/49/39 73/49/39
f 73/49/40 58/49/40 69/49/40
f 69/49/41 59/49/41 70/49/41
f 70/49/42 60/49/42 68/49/42
f 60/49/43 71/49/43 68/49/43
f 61/49/44 74/49/44 71/49/44
f 62/49/45 75/49/45 74/49/45
f 63/49/46 76/49/46 75/49/46
f 64/49/47 86/49/47 76/49/47
f 65/49/48 79/49/48 86/49/48
f 6/49/1 61/49/1 53/49/1
f 66/49/49 77/49/49 79/49/49
f 67/49/50 84/49/50 77/49/50
f 49/50/1 51/51/1 16/1/1
f 5/2/1 52/52/1 48/53/1
f 39/3/1 49/50/1 16/1/1
f 5/2/1 48/53/1 39/3/1
f 43/54/1 52/52/1 5/2/1
f 16/1/1 51/51/1 28/55/1
f 16/1/1 28/55/1 30/56/1
f 43/54/1 5/2/1 1/4/1
f 41/57/1 43/54/1 1/4/1
f 12/5/1 16/1/1 30/56/1
f 12/5/1 30/56/1 37/58/1
f 33/6/1 41/57/1 1/4/1
f 12/5/1 37/58/1 33/6/1
f 5/2/2 16/59/2 20/7/2
f 16/9/3 12/15/3 15/10/3
f 4/12/4 10/8/4 20/13/4
f 1/4/5 5/2/5 10/8/5
f 12/15/6 1/4/6 4/12/6
f 2/49/19 6/49/19 80/49/19
f 6/49/20 8/49/20 83/49/20
f 8/49/21 11/49/21 81/49/21
f 11/49/59 14/49/59 82/49/59
f 14/49/23 17/49/23 93/49/23
f 17/49/24 21/49/24 99/49/24
f 21/49/25 23/49/25 96/49/25
f 23/49/26 25/49/26 94/49/26
f 94/49/27 25/49/27 29/49/27
f 95/49/28 29/49/28 31/49/28
f 98/49/29 31/49/29 34/49/29
f 97/49/30 34/49/30 38/49/30
f 90/49/60 38/49/60 40/49/60
f 91/49/32 40/49/32 44/49/32
f 89/49/33 44/49/33 47/49/33
f 92/49/34 47/49/34 50/49/34
f 88/49/35 50/49/35 53/49/35
f 87/49/36 53/49/36 54/49/36
f 78/49/37 54/49/37 55/49/37
f 85/49/38 55/49/38 56/49/38
f 72/49/39 56/49/39 57/49/39
f 73/49/40 57/49/40 58/49/40
f 69/49/41 58/49/41 59/49/41
f 70/49/42 59/49/42 60/49/42
f 60/49/43 61/49/43 71/49/43
f 61/49/44 62/49/44 74/49/44
f 62/49/45 63/49/45 75/49/45
f 63/49/46 64/49/46 76/49/46
f 64/49/47 65/49/47 86/49/47
f 65/49/48 66/49/48 79/49/48
f 53/49/1 50/49/1 47/49/1
f 47/49/1 44/49/1 40/49/1
f 40/49/1 38/49/1 34/49/1
f 34/49/1 31/49/1 29/49/1
f 29/49/1 25/49/1 23/49/1
f 23/49/1 21/49/1 17/49/1
f 17/49/1 14/49/1 11/49/1
f 11/49/1 8/49/1 6/49/1
f 6/49/1 2/49/1 67/49/1
f 67/49/1 66/49/1 65/49/1
f 65/49/1 64/49/1 63/49/1
f 63/49/1 62/49/1 61/49/1
f 61/49/1 60/49/1 59/49/1
f 59/49/1 58/49/1 57/49/1
f 57/49/1 56/49/1 55/49/1
f 55/49/1 54/49/1 53/49/1
f 53/49/1 47/49/1 40/49/1
f 40/49/1 34/49/1 29/49/1
f 29/49/1 23/49/1 17/49/1
f 17/49/1 11/49/1 6/49/1
f 6/49/1 67/49/1 65/49/1
f 65/49/1 63/49/1 61/49/1
f 61/49/1 59/49/1 57/49/1
f 57/49/1 55/49/1 53/49/1
f 53/49/1 40/49/1 29/49/1
f 29/49/1 17/49/1 6/49/1
f 6/49/1 65/49/1 61/49/1
f 61/49/1 57/49/1 53/49/1
f 53/49/1 29/49/1 6/49/1
f 66/49/49 67/49/49 77/49/49
f 67/49/50 2/49/50 84/49/50
usemtl Material.003
f 3/16/1 9/17/1 84/18/1
f 13/19/1 88/20/1 87/21/1
f 18/22/7 19/23/7 22/24/7
f 18/22/8 33/25/8 19/23/8
f 24/26/9 26/27/9 27/28/9
f 24/29/10 30/30/10 26/31/10
f 19/23/6 37/32/6 24/29/6
f 27/28/11 3/16/11 19/23/11
f 32/33/12 35/34/12 36/35/12
f 35/36/13 28/37/13 51/38/13
f 26/31/3 28/37/3 32/39/3
f 36/35/14 9/17/14 26/27/14
f 42/40/15 45/41/15 46/42/15
f 52/43/16 45/41/16 48/44/16
f 42/40/2 39/45/2 48/44/2
f 18/22/5 43/46/5 41/47/5
f 13/19/17 35/34/17 46/42/17
f 22/24/18 7/48/18 45/41/18
f 83/60/1 81/61/1 3/16/1
f 9/17/1 86/62/1 79/63/1
f 9/17/1 79/63/1 77/64/1
f 80/65/1 83/60/1 3/16/1
f 9/17/1 77/64/1 84/18/1
f 84/18/1 80/65/1 3/16/1
f 3/16/1 81/61/1 82/66/1
f 3/16/1 82/66/1 93/67/1
f 76/68/1 86/62/1 9/17/1
f 75/69/1 76/68/1 9/17/1
f 3/16/1 93/67/1 99/70/1
f 3/16/1 99/70/1 96/71/1
f 74/72/1 75/69/1 9/17/1
f 71/73/1 74/72/1 9/17/1
f 3/16/1 96/71/1 94/74/1
f 7/48/1 3/16/1 94/74/1
f 68/75/1 71/73/1 9/17/1
f 68/75/1 9/17/1 13/19/1
f 7/48/1 94/74/1 95/76/1
f 7/48/1 95/76/1 98/77/1
f 70/78/1 68/75/1 13/19/1
f 69/79/1 70/78/1 13/19/1
f 7/48/1 98/77/1 97/80/1
f 7/48/1 97/80/1 90/81/1
f 73/82/1 69/79/1 13/19/1
f 72/83/1 73/82/1 13/19/1
f 7/48/1 90/81/1 91/84/1
f 7/48/1 91/84/1 89/85/1
f 85/86/1 72/83/1 13/19/1
f 78/87/1 85/86/1 13/19/1
f 13/19/1 7/48/1 89/85/1
f 13/19/1 89/85/1 92/88/1
f 87/21/1 78/87/1 13/19/1
f 13/19/1 92/88/1 88/20/1
f 18/22/8 41/47/8 33/25/8
f 24/29/10 37/32/10 30/30/10
f 19/23/6 33/25/6 37/32/6
f 19/23/11 24/26/11 27/28/11
f 27/28/51 9/17/51 3/16/51
f 3/16/52 22/24/52 19/23/52
f 49/89/13 39/90/13 35/36/13
f 35/36/13 32/39/13 28/37/13
f 51/38/13 49/89/13 35/36/13
f 26/31/3 30/30/3 28/37/3
f 26/27/14 32/33/14 36/35/14
f 36/35/53 13/19/53 9/17/53
f 9/17/54 27/28/54 26/27/54
f 52/43/16 43/46/16 45/41/16
f 45/41/16 42/40/16 48/44/16
f 42/40/2 35/91/2 39/45/2
f 18/22/5 45/41/5 43/46/5
f 46/42/55 7/48/55 13/19/55
f 13/19/56 36/35/56 35/34/56
f 35/34/17 42/40/17 46/42/17
f 45/41/18 18/22/18 22/24/18
f 22/24/57 3/16/57 7/48/57
f 7/48/58 46/42/58 45/41/58
