# Blender 5.1.0
# www.blender.org
mtllib upper.mtl
o Верхняя_платформа
v -0.752854 0.767855 1.780092
v -0.189696 0.917306 -0.845642
v -0.752854 1.688329 1.780092
v -0.189696 1.217306 -0.845642
v 0.074921 1.036152 -0.137247
v -0.752854 0.842069 -2.119908
v -0.752854 1.241595 -2.119908
v 0.310304 0.917306 -0.845642
v 0.183196 1.036152 -0.126679
v 0.310304 1.217306 -0.845642
v 0.747145 0.767855 1.780092
v 0.747145 1.688329 1.780092
v 0.287310 1.036152 -0.095380
v 0.747145 0.842069 -2.119908
v 0.747145 1.241595 -2.119908
v 0.383262 1.036152 -0.044555
v 0.467365 1.036152 0.023844
v 0.536386 1.036152 0.107190
v 0.587674 1.036152 0.202277
v 0.619257 1.036152 0.305453
v 0.629921 1.036152 0.412753
v 0.619257 1.036152 0.520053
v 0.587674 1.036152 0.623229
v 0.536386 1.036152 0.718316
v 0.467365 1.036152 0.801661
v 0.383262 1.036152 0.870061
v 0.287310 1.036152 0.920886
v 0.183196 1.036152 0.952185
v 0.074921 1.036152 0.962753
v -0.033354 1.036152 0.952185
v -0.137468 1.036152 0.920886
v -0.233421 1.036152 0.870061
v -0.317523 1.036152 0.801661
v -0.386545 1.036152 0.718316
v -0.437832 1.036152 0.623229
v -0.469415 1.036152 0.520053
v -0.480079 1.036152 0.412753
v -0.469415 1.036152 0.305453
v -0.437832 1.036152 0.202277
v -0.386545 1.036152 0.107190
v -0.317523 1.036152 0.023844
v -0.233421 1.036152 -0.044555
v -0.137468 1.036152 -0.095380
v -0.033354 1.036152 -0.126679
v 0.271108 0.803544 -0.095380
v 0.366993 0.802577 -0.044555
v 0.449974 0.786474 0.801661
v 0.451005 0.801275 0.023844
v 0.058774 0.804340 -0.137247
v 0.167035 0.804139 -0.126679
v 0.519106 0.788060 0.718316
v 0.519916 0.799689 0.107190
v 0.570519 0.789869 0.623229
v 0.613045 0.793874 0.412753
v 0.602239 0.791833 0.520053
v 0.602523 0.795916 0.305453
v 0.571077 0.797880 0.202277
v -0.496955 0.793874 0.412753
v -0.454987 0.789869 0.623229
v -0.486433 0.791833 0.520053
v -0.486148 0.795916 0.305453
v -0.403825 0.788060 0.718316
v -0.441958 0.789408 0.647443
v -0.334915 0.786474 0.801661
v -0.333884 0.801275 0.023844
v -0.403015 0.799689 0.107190
v -0.454429 0.797880 0.202277
v -0.155018 0.784205 0.920886
v -0.249690 0.802577 -0.044555
v -0.250902 0.785172 0.870061
v -0.153671 0.803544 -0.095380
v -0.049515 0.804139 -0.126679
v -0.050945 0.783609 0.952185
v 0.057316 0.783408 0.962753
v 0.165605 0.783609 0.952185
v 0.269761 0.784205 0.920886
v 0.365780 0.785172 0.870061
v 0.310304 1.217306 -2.119908
v -0.189696 1.217306 -2.119908
v -0.189696 0.917306 -2.119908
v 0.310304 0.917306 -2.119908
vn -1.0000 -0.0000 -0.0000
vn -0.0000 -0.0000 -1.0000
vn 1.0000 -0.0000 -0.0000
vn -0.0000 -0.0000 1.0000
vn -0.0000 -0.9998 -0.0190
vn -0.0000 0.9935 -0.1138
vn -0.0971 0.0068 0.9952
vn -0.2878 0.0200 0.9575
vn -0.4678 0.0326 0.8832
vn -0.6304 0.0439 0.7751
vn -0.7691 0.0536 0.6369
vn -0.8785 0.0612 0.4738
vn -0.9541 0.0665 0.2921
vn -0.9927 0.0691 0.0987
vn -0.9927 0.0691 -0.0987
vn -0.9541 0.0665 -0.2921
vn -0.8785 0.0612 -0.4738
vn -0.7691 0.0536 -0.6369
vn -0.6304 0.0439 -0.7751
vn -0.4678 0.0326 -0.8832
vn -0.2878 0.0200 -0.9575
vn -0.0971 0.0068 -0.9952
vn 0.0971 -0.0068 -0.9952
vn 0.2878 -0.0200 -0.9575
vn 0.4678 -0.0326 -0.8832
vn 0.6304 -0.0439 -0.7751
vn 0.7691 -0.0536 -0.6369
vn 0.8785 -0.0612 -0.4738
vn 0.9541 -0.0665 -0.2921
vn 0.9927 -0.0691 -0.0987
vn 0.9927 -0.0691 0.0987
vn 0.9541 -0.0665 0.2921
vn 0.8785 -0.0612 0.4738
vn 0.7691 -0.0536 0.6369
vn 0.6304 -0.0439 0.7751
vn 0.4678 -0.0326 0.8832
vn -0.0000 -1.0000 -0.0000
vn 0.2878 -0.0200 0.9575
vn 0.0971 -0.0068 0.9952
vn -0.0000 1.0000 -0.0000
vn -0.0007 -0.9998 -0.0193
vn -0.0387 -0.9991 -0.0175
vn -0.9863 -0.1601 0.0406
vt 0.375000 0.000000
vt 0.625000 0.250000
vt 0.375000 0.250000
vt 0.625000 0.500000
vt 0.422079 0.427193
vt 0.609802 0.427193
vt 0.422079 0.343860
vt 0.375000 0.750000
vt 0.375000 0.500000
vt 0.625000 0.750000
vt 0.375000 1.000000
vt 0.125000 0.750000
vt 0.241985 0.696929
vt 0.260028 0.697606
vt 0.260271 0.627094
vt 0.242223 0.627771
vt 0.875000 0.500000
vt 0.968750 0.880274
vt 1.000000 1.000000
vt 1.000000 0.880378
vt 0.937500 0.879966
vt 0.968750 1.000000
vt 0.906250 0.879467
vt 0.937500 1.000000
vt 0.875000 0.878796
vt 0.906250 1.000000
vt 0.843750 0.877977
vt 0.875000 1.000000
vt 0.812500 1.000000
vt 0.812500 0.877044
vt 0.781250 1.000000
vt 0.781250 0.876030
vt 0.750000 1.000000
vt 0.750000 0.874977
vt 0.718750 1.000000
vt 0.718750 0.873923
vt 0.687500 1.000000
vt 0.687500 0.872910
vt 0.656250 1.000000
vt 0.656250 0.871976
vt 0.625000 1.000000
vt 0.625000 0.871158
vt 0.593750 1.000000
vt 0.593750 0.870486
vt 0.562500 1.000000
vt 0.562500 0.869987
vt 0.531250 1.000000
vt 0.531250 0.869680
vt 0.500000 1.000000
vt 0.500000 0.869576
vt 0.468750 1.000000
vt 0.468750 0.869680
vt 0.437500 1.000000
vt 0.437500 0.869987
vt 0.406250 1.000000
vt 0.406250 0.870486
vt 0.375000 0.871158
vt 0.343750 1.000000
vt 0.343750 0.871976
vt 0.312500 0.872910
vt 0.281250 0.873923
vt 0.312500 1.000000
vt 0.250000 0.874977
vt 0.281250 1.000000
vt 0.218750 0.876030
vt 0.250000 1.000000
vt 0.187500 0.877043
vt 0.218750 1.000000
vt 0.156250 0.877977
vt 0.187500 1.000000
vt 0.125000 0.878796
vt 0.156250 1.000000
vt 0.093750 0.879467
vt 0.125000 1.000000
vt 0.062500 0.879966
vt 0.093750 1.000000
vt 0.341844 0.028269
vt 0.028269 0.158156
vt 0.158156 0.471731
vt 0.031250 0.880274
vt 0.062500 1.000000
vt 0.000000 0.880378
vt 0.031250 1.000000
vt 0.625000 0.000000
vt 0.375000 0.151676
vt 0.625000 0.151676
vt 0.625000 0.598324
vt 0.375000 0.598324
vt 0.125000 0.598324
vt 0.875000 0.750000
vt 0.609802 0.343860
vt 0.325471 0.687280
vt 0.336993 0.681937
vt 0.176816 0.677394
vt 0.183172 0.681937
vt 0.194657 0.687280
vt 0.311439 0.691665
vt 0.208659 0.691665
vt 0.224639 0.694923
vt 0.295436 0.694923
vt 0.278077 0.696929
vt 0.174645 0.675842
vt 0.345562 0.675842
vt 0.350849 0.669228
vt 0.169404 0.669228
vt 0.167650 0.662350
vt 0.352650 0.662350
vt 0.350896 0.655472
vt 0.125000 0.500000
vt 0.169451 0.655472
vt 0.345655 0.648858
vt 0.174738 0.648858
vt 0.183307 0.642763
vt 0.337128 0.642763
vt 0.325643 0.637420
vt 0.194828 0.637420
vt 0.311641 0.633035
vt 0.295660 0.629777
vt 0.208861 0.633035
vt 0.224864 0.629777
vt 0.278315 0.627771
vt 0.843750 1.000000
vt 0.320458 0.872672
vt 0.203178 0.485388
vt 0.250000 0.490000
vt 0.296822 0.485388
vt 0.341844 0.471731
vt 0.383337 0.449553
vt 0.419706 0.419706
vt 0.449553 0.383337
vt 0.471731 0.341844
vt 0.485388 0.296822
vt 0.490000 0.250000
vt 0.485388 0.203178
vt 0.471731 0.158156
vt 0.449553 0.116663
vt 0.419706 0.080294
vt 0.383337 0.050447
vt 0.296822 0.014612
vt 0.250000 0.010000
vt 0.203178 0.014612
vt 0.158156 0.028269
vt 0.116663 0.050447
vt 0.080294 0.080294
vt 0.050447 0.116663
vt 0.014612 0.203178
vt 0.010000 0.250000
vt 0.014612 0.296822
vt 0.028269 0.341844
vt 0.050447 0.383337
vt 0.080294 0.419706
vt 0.116663 0.449553
vt 0.000000 1.000000
vt 0.875000 0.598324
s 0
usemtl 
f 1/1/1 7/2/1 6/3/1
f 15/4/2 81/5/2 78/6/2
f 6/3/2 7/2/2 80/7/2
f 15/4/3 11/8/3 14/9/3
f 12/10/4 1/11/4 11/8/4
f 1/12/5 73/13/5 74/14/5
f 14/9/5 49/15/5 72/16/5
f 7/17/6 12/10/6 15/4/6
f 50/18/7 5/19/7 49/20/7
f 45/21/8 9/22/8 50/18/8
f 46/23/9 13/24/9 45/21/9
f 48/25/10 16/26/10 46/23/10
f 52/27/11 17/28/11 48/25/11
f 19/29/12 52/27/12 57/30/12
f 20/31/13 57/30/13 56/32/13
f 21/33/14 56/32/14 54/34/14
f 22/35/15 54/34/15 55/36/15
f 23/37/16 55/36/16 53/38/16
f 24/39/17 53/38/17 51/40/17
f 25/41/18 51/40/18 47/42/18
f 26/43/19 47/42/19 77/44/19
f 27/45/20 77/44/20 76/46/20
f 28/47/21 76/46/21 75/48/21
f 29/49/22 75/48/22 74/50/22
f 30/51/23 74/50/23 73/52/23
f 31/53/24 73/52/24 68/54/24
f 32/55/25 68/54/25 70/56/25
f 33/11/26 70/56/26 64/57/26
f 34/58/27 64/57/27 62/59/27
f 59/60/28 34/58/28 62/59/28
f 60/61/29 35/62/29 59/60/29
f 58/63/30 36/64/30 60/61/30
f 61/65/31 37/66/31 58/63/31
f 67/67/32 38/68/32 61/65/32
f 66/69/33 39/70/33 67/67/33
f 65/71/34 40/72/34 66/69/34
f 69/73/35 41/74/35 65/71/35
f 71/75/36 42/76/36 69/73/36
f 27/77/37 35/78/37 43/79/37
f 72/80/38 43/81/38 71/75/38
f 49/82/39 44/83/39 72/80/39
f 4/84/3 80/85/3 79/86/3
f 8/8/1 78/87/1 81/88/1
f 2/11/2 10/10/2 8/8/2
f 2/12/40 81/88/40 80/89/40
f 4/90/37 78/87/37 10/10/37
f 1/1/1 3/84/1 7/2/1
f 15/4/2 14/9/2 81/5/2
f 81/5/2 14/9/2 6/3/2
f 7/2/2 15/4/2 78/6/2
f 7/2/2 78/6/2 79/91/2
f 80/7/2 81/5/2 6/3/2
f 7/2/2 79/91/2 80/7/2
f 15/4/3 12/10/3 11/8/3
f 12/10/4 3/41/4 1/11/4
f 47/92/5 51/93/5 11/8/5
f 1/12/5 63/94/5 62/95/5
f 1/12/5 62/95/5 64/96/5
f 47/92/5 11/8/5 1/12/5
f 77/97/41 47/92/41 1/12/41
f 1/12/5 64/96/5 70/98/5
f 1/12/5 70/98/5 68/99/5
f 76/100/5 77/97/5 1/12/5
f 75/101/5 76/100/5 1/12/5
f 1/12/5 68/99/5 73/13/5
f 74/14/5 75/101/5 1/12/5
f 59/102/5 63/94/5 1/12/5
f 11/8/5 51/93/5 53/103/5
f 11/8/5 53/103/5 55/104/5
f 60/105/5 59/102/5 1/12/5
f 58/106/5 60/105/5 1/12/5
f 11/8/5 55/104/5 54/107/5
f 11/8/42 54/107/42 56/108/42
f 58/106/5 1/12/5 6/109/5
f 61/110/5 58/106/5 6/109/5
f 14/9/5 11/8/5 56/108/5
f 14/9/5 56/108/5 57/111/5
f 67/112/5 61/110/5 6/109/5
f 66/113/5 67/112/5 6/109/5
f 14/9/5 57/111/5 52/114/5
f 14/9/5 52/114/5 48/115/5
f 66/113/5 6/109/5 14/9/5
f 65/116/5 66/113/5 14/9/5
f 14/9/5 48/115/5 46/117/5
f 14/9/5 46/117/5 45/118/5
f 69/119/5 65/116/5 14/9/5
f 71/120/5 69/119/5 14/9/5
f 14/9/5 45/118/5 50/121/5
f 14/9/5 50/121/5 49/15/5
f 72/16/5 71/120/5 14/9/5
f 7/17/6 3/90/6 12/10/6
f 50/18/7 9/22/7 5/19/7
f 45/21/8 13/24/8 9/22/8
f 46/23/9 16/26/9 13/24/9
f 48/25/10 17/28/10 16/26/10
f 52/27/11 18/122/11 17/28/11
f 19/29/12 18/122/12 52/27/12
f 20/31/13 19/29/13 57/30/13
f 21/33/14 20/31/14 56/32/14
f 22/35/15 21/33/15 54/34/15
f 23/37/16 22/35/16 55/36/16
f 24/39/17 23/37/17 53/38/17
f 25/41/18 24/39/18 51/40/18
f 26/43/19 25/41/19 47/42/19
f 27/45/20 26/43/20 77/44/20
f 28/47/21 27/45/21 76/46/21
f 29/49/22 28/47/22 75/48/22
f 30/51/23 29/49/23 74/50/23
f 31/53/24 30/51/24 73/52/24
f 32/55/25 31/53/25 68/54/25
f 33/11/26 32/55/26 70/56/26
f 34/58/27 33/11/27 64/57/27
f 62/59/43 63/123/43 59/60/43
f 59/60/28 35/62/28 34/58/28
f 60/61/29 36/64/29 35/62/29
f 58/63/30 37/66/30 36/64/30
f 61/65/31 38/68/31 37/66/31
f 67/67/32 39/70/32 38/68/32
f 66/69/33 40/72/33 39/70/33
f 65/71/34 41/74/34 40/72/34
f 69/73/35 42/76/35 41/74/35
f 71/75/36 43/81/36 42/76/36
f 43/79/37 44/124/37 5/125/37
f 5/125/37 9/126/37 13/127/37
f 13/127/37 16/128/37 17/129/37
f 17/129/37 18/130/37 19/131/37
f 19/131/37 20/132/37 21/133/37
f 21/133/37 22/134/37 23/135/37
f 23/135/37 24/136/37 25/137/37
f 25/137/37 26/138/37 27/77/37
f 27/77/37 28/139/37 29/140/37
f 29/140/37 30/141/37 31/142/37
f 31/142/37 32/143/37 33/144/37
f 33/144/37 34/145/37 35/78/37
f 35/78/37 36/146/37 37/147/37
f 37/147/37 38/148/37 39/149/37
f 39/149/37 40/150/37 41/151/37
f 41/151/37 42/152/37 43/79/37
f 43/79/37 5/125/37 13/127/37
f 13/127/37 17/129/37 19/131/37
f 19/131/37 21/133/37 23/135/37
f 23/135/37 25/137/37 27/77/37
f 27/77/37 29/140/37 31/142/37
f 31/142/37 33/144/37 35/78/37
f 35/78/37 37/147/37 39/149/37
f 39/149/37 41/151/37 43/79/37
f 43/79/37 13/127/37 19/131/37
f 19/131/37 23/135/37 27/77/37
f 27/77/37 31/142/37 35/78/37
f 35/78/37 39/149/37 43/79/37
f 43/79/37 19/131/37 27/77/37
f 72/80/38 44/83/38 43/81/38
f 49/82/39 5/153/39 44/83/39
f 4/84/3 2/1/3 80/85/3
f 8/8/1 10/10/1 78/87/1
f 2/11/2 4/41/2 10/10/2
f 2/12/40 8/8/40 81/88/40
f 4/90/37 79/154/37 78/87/37
